#!OML:ASF F:\VICON\USERDATA\INSTALL\rory3\rory3.ASF
:FULLY-SPECIFIED
:DEGREES
49
root 0.866858 17.9002 -20.653 -1.45087 1.3188 1.86284
lowerback 10.2146 -1.66693 -4.52442
upperback -0.293737 -2.6446 2.01297
thorax -5.74486 -1.13925 5.06579
lowerneck -14.7017 -2.6155 -2.69727
upperneck 25.6813 -2.85874 -0.612581
head 10.7199 -1.6531 -0.148985
rclavicle 1.78906e-014 1.27222e-014
rhumerus -34.8825 -17.4697 -76.8433
rradius 24.8416
rwrist 4.69574
rhand -18.7344 23.398
rfingers 7.12502
rthumb 7.56153 -6.44681
lclavicle 1.78906e-014 1.27222e-014
lhumerus -25.4815 0.984597 82.5307
lradius 27.9079
lwrist 10.1904
lhand -29.0932 26.1482
lfingers 7.12502
lthumb -2.44174 56.1139
rfemur -30.6135 2.66276 18.2338
rtibia 27.2589
rfoot -7.61999 -13.0769
rtoes 4.58578
lfemur 8.30654 -1.3229 -26.9948
ltibia 15.3531
lfoot -16.2889 -4.93971
ltoes 4.08626
50
root 0.847683 17.8972 -20.4718 -1.34633 1.52176 1.849
lowerback 10.0088 -1.66229 -4.51955
upperback -0.154185 -2.63108 1.95175
thorax -5.48573 -1.1455 4.98112
lowerneck -15.2482 -2.70006 -2.42877
upperneck 25.9195 -3.01446 -0.680273
head 10.9106 -1.70544 -0.250713
rclavicle 2.74323e-014 -9.54166e-015
rhumerus -34.9003 -18.0814 -76.6889
rradius 24.6182
rwrist 4.83898
rhand -18.667 23.8599
rfingers 7.12502
rthumb 7.6266 -5.98263
lclavicle 2.74323e-014 -9.54166e-015
lhumerus -24.728 0.338945 82.5513
lradius 27.9155
lwrist 10.3531
lhand -29.4809 27.3791
lfingers 7.12502
lthumb -2.81612 57.3403
rfemur -30.1335 3.61694 17.8039
rtibia 24.3342
rfoot -8.10928 -14.1085
rtoes 4.33671
lfemur 9.19972 -1.33528 -26.8858
ltibia 14.6444
lfoot -16.2588 -5.17606
ltoes 3.44664
51
root 0.829983 17.8922 -20.2878 -1.35778 1.62686 1.91941
lowerback 9.94654 -1.4293 -4.31987
upperback 0.276678 -2.30745 1.61204
thorax -5.05534 -1.01741 4.4489
lowerneck -16.8251 -2.96339 -1.79613
upperneck 26.2981 -3.54027 -0.630534
head 11.3554 -1.86893 -0.445102
rclavicle 7.52897e-015 -5.1684e-015
rhumerus -34.5802 -19.6282 -76.74
rradius 24.5163
rwrist 5.09167
rhand -18.6095 26.3304
rfingers 7.12502
rthumb 7.68205 -3.51009
lclavicle 7.52897e-015 -5.1684e-015
lhumerus -23.1887 -0.969983 82.4349
lradius 27.7034
lwrist 10.5018
lhand -29.604 27.1797
lfingers 7.12502
lthumb -2.93499 57.1393
rfemur -29.505 4.51778 17.3003
rtibia 21.5634
rfoot -8.85023 -14.7503
rtoes 3.73353
lfemur 10.2085 -1.44759 -26.9226
ltibia 13.9886
lfoot -16.112 -5.28747
ltoes 2.85364
52
root 0.806138 17.8828 -20.1098 -1.36548 1.88411 2.14147
lowerback 10.0382 -1.64896 -4.92
upperback 0.0246067 -2.66702 1.80356
thorax -5.29878 -1.16458 5.05162
lowerneck -15.7648 -2.79722 -2.2051
upperneck 25.9895 -3.2079 -0.64643
head 11.0359 -1.76539 -0.312268
rclavicle -1.10325e-014 2.38542e-014
rhumerus -35.1115 -19.1226 -76.3277
rradius 24.2682
rwrist 5.36111
rhand -18.5975 29.5694
rfingers 7.12502
rthumb 7.69365 -0.270652
lclavicle -1.10325e-014 2.38542e-014
lhumerus -23.4882 -0.231746 82.4549
lradius 27.715
lwrist 10.1554
lhand -29.4598 26.1213
lfingers 7.12502
lthumb -2.79577 56.0828
rfemur -28.8652 5.44 16.5789
rtibia 18.9732
rfoot -9.65313 -15.3732
rtoes 1.86652
lfemur 11.1171 -1.47085 -27.0173
ltibia 13.4441
lfoot -15.9382 -5.70684
ltoes 1.66314
53
root 0.785268 17.8697 -19.9322 -1.3605 2.18354 2.36104
lowerback 10.1817 -1.80561 -5.37752
upperback -0.113908 -2.93474 1.88547
thorax -5.46737 -1.274 5.44632
lowerneck -15.3868 -2.71613 -2.39596
upperneck 25.845 -3.06536 -0.595305
head 10.9112 -1.7142 -0.23405
rclavicle 5.73742e-014 6.36111e-015
rhumerus -35.5043 -18.8292 -76.0674
rradius 24.1136
rwrist 5.44204
rhand -18.5842 28.8607
rfingers 7.12502
rthumb 7.70648 -0.978914
lclavicle 5.73742e-014 6.36111e-015
lhumerus -23.2992 0.0117357 82.4983
lradius 27.5244
lwrist 10.0955
lhand -29.8072 25.1562
lfingers 7.12502
lthumb -3.13125 55.113
rfemur -28.2674 6.30055 15.8584
rtibia 16.6908
rfoot -10.2314 -15.7825
rtoes -0.952676
lfemur 11.8793 -1.5458 -27.0872
ltibia 13.2083
lfoot -15.8031 -6.08181
ltoes 0.946561
54
root 0.7649 17.8509 -19.746 -1.3441 2.56156 2.5581
lowerback 10.0746 -1.97335 -5.64646
upperback -0.119609 -3.18588 1.86342
thorax -5.3674 -1.3949 5.6029
lowerneck -15.255 -2.70801 -2.44786
upperneck 25.8066 -3.04174 -0.604051
head 10.8717 -1.71013 -0.222747
rclavicle 2.03754e-015 -3.97569e-015
rhumerus -35.8216 -18.8067 -75.933
rradius 24.1492
rwrist 5.5822
rhand -18.6515 25.4499
rfingers 7.12502
rthumb 7.64156 -4.39205
lclavicle 2.03754e-015 -3.97569e-015
lhumerus -23.0895 -0.231383 82.5439
lradius 27.561
lwrist 10.2893
lhand -30.9289 23.8547
lfingers 7.12502
lthumb -4.21444 53.7928
rfemur -27.753 7.1894 15.149
rtibia 14.9335
rfoot -10.6717 -16.3318
rtoes -2.12238
lfemur 12.4487 -1.86306 -27.1615
ltibia 13.3379
lfoot -15.5926 -6.30913
ltoes 0.977906
55
root 0.744498 17.8301 -19.5586 -1.29939 2.92064 2.43531
lowerback 9.80891 -2.01342 -5.43101
upperback 0.050933 -3.20186 1.76138
thorax -5.05248 -1.42631 5.35261
lowerneck -15.4969 -2.80311 -2.22348
upperneck 25.8151 -3.25068 -0.532002
head 10.9205 -1.77319 -0.267464
rclavicle 1.08835e-014 2.62396e-014
rhumerus -35.8791 -19.654 -75.7914
rradius 24.0311
rwrist 5.89775
rhand -18.3691 24.0667
rfingers 7.12502
rthumb 7.9141 -5.76518
lclavicle 1.08835e-014 2.62396e-014
lhumerus -22.5586 -1.18282 82.6395
lradius 27.7156
lwrist 10.2203
lhand -32.1273 23.3678
lfingers 7.12502
lthumb -5.37168 53.2797
rfemur -27.3717 7.82127 14.9644
rtibia 13.8018
rfoot -11.3056 -16.7241
rtoes -0.982078
lfemur 12.7654 -2.11487 -26.8358
ltibia 13.7943
lfoot -15.872 -7.05088
ltoes -0.474459
56
root 0.725973 17.8178 -19.3796 -1.45079 3.17562 2.27692
lowerback 10.0653 -1.98295 -5.22867
upperback 0.19628 -3.15126 1.69824
thorax -5.06364 -1.40955 5.17377
lowerneck -15.9366 -2.86874 -1.99766
upperneck 25.8797 -3.41368 -0.464584
head 11.0287 -1.81473 -0.311998
rclavicle 9.14409e-015 -1.98785e-015
rhumerus -35.9483 -20.3962 -75.6325
rradius 23.9373
rwrist 6.15347
rhand -18.1103 24.2501
rfingers 7.12502
rthumb 8.16393 -5.5722
lclavicle 9.14409e-015 -1.98785e-015
lhumerus -22.008 -2.26417 82.8631
lradius 27.7877
lwrist 9.56759
lhand -32.9936 24.4417
lfingers 7.12502
lthumb -6.20802 54.3307
rfemur -26.8854 7.17578 15.4577
rtibia 13.4047
rfoot -12.2435 -15.989
rtoes -1.17375
lfemur 13.1644 -2.43676 -26.5309
ltibia 14.5019
lfoot -15.9986 -7.51313
ltoes -1.27542
57
root 0.701378 17.8118 -19.199 -1.57287 3.30422 2.12692
lowerback 10.4898 -2.01221 -5.23326
upperback 0.128657 -3.20835 1.78767
thorax -5.36102 -1.42345 5.30545
lowerneck -16.019 -2.91969 -2.02328
upperneck 25.9229 -3.47656 -0.468706
head 11.0622 -1.84615 -0.320067
rclavicle 1.15544e-014 7.15625e-015
rhumerus -36.3193 -20.2086 -75.5292
rradius 24.1626
rwrist 6.02909
rhand -18.0053 23.8699
rfingers 7.12502
rthumb 8.26521 -5.94839
lclavicle 1.15544e-014 7.15625e-015
lhumerus -21.8856 -2.65094 83.0308
lradius 27.8787
lwrist 9.05956
lhand -33.277 25.5535
lfingers 7.12502
lthumb -6.4816 55.4343
rfemur -26.6637 5.78164 16.3456
rtibia 13.7732
rfoot -11.4045 -14.5512
rtoes -6.4489
lfemur 13.4352 -2.6901 -26.2267
ltibia 15.3664
lfoot -15.9693 -7.97792
ltoes -1.77029
58
root 0.674313 17.7985 -19.0123 -1.55488 3.23838 2.09138
lowerback 10.6621 -1.9329 -5.35745
upperback -0.0154207 -3.12822 1.81303
thorax -5.61296 -1.36701 5.40731
lowerneck -15.8282 -2.98237 -1.97923
upperneck 25.8845 -3.58776 -0.452548
head 11.0103 -1.89115 -0.333563
rclavicle -3.79679e-014 7.55382e-015
rhumerus -36.898 -20.3094 -75.2749
rradius 24.3256
rwrist 6.04579
rhand -18.0129 23.2917
rfingers 7.12502
rthumb 8.2579 -6.52695
lclavicle -3.79679e-014 7.55382e-015
lhumerus -21.8951 -3.04287 83.1794
lradius 27.9616
lwrist 9.10014
lhand -33.4787 24.9818
lfingers 7.12502
lthumb -6.67635 54.8565
rfemur -26.9084 4.48946 17.1404
rtibia 14.8407
rfoot -10.9187 -12.8932
rtoes -7.53673
lfemur 13.5784 -2.79985 -26.044
ltibia 16.1627
lfoot -15.714 -8.41681
ltoes -1.77485
59
root 0.648072 17.7813 -18.8253 -1.64532 3.07408 2.06344
lowerback 10.7851 -1.84704 -5.46501
upperback -0.059004 -3.0359 1.79287
thorax -5.73629 -1.31272 5.44259
lowerneck -15.798 -2.94472 -1.87183
upperneck 26.0356 -3.56555 -0.45776
head 11.0581 -1.87128 -0.351655
rclavicle 3.10353e-014 3.97569e-015
rhumerus -37.1717 -20.7237 -75.0279
rradius 24.0045
rwrist 6.50489
rhand -18.228 23.2582
rfingers 7.12502
rthumb 8.05033 -6.56852
lclavicle 3.10353e-014 3.97569e-015
lhumerus -21.8782 -3.403 83.2534
lradius 28.0581
lwrist 9.24506
lhand -33.5187 23.8437
lfingers 7.12502
lthumb -6.71499 53.7173
rfemur -27.0902 3.55512 17.8547
rtibia 16.1979
rfoot -10.1961 -11.4159
rtoes -5.96866
lfemur 13.8206 -2.8595 -25.8967
ltibia 16.9617
lfoot -15.2303 -8.77168
ltoes -1.01354
60
root 0.622629 17.7698 -18.6298 -1.84228 2.9881 2.07947
lowerback 10.8492 -1.77407 -5.5422
upperback 0.108346 -2.95204 1.72872
thorax -5.60539 -1.27916 5.40363
lowerneck -16.2747 -2.95503 -1.78929
upperneck 26.2566 -3.60949 -0.40598
head 11.2353 -1.87405 -0.364161
rclavicle -1.4884e-014 7.15625e-015
rhumerus -37.0869 -21.4562 -74.7903
rradius 23.5559
rwrist 7.11053
rhand -18.1753 23.7783
rfingers 7.12502
rthumb 8.10113 -6.04639
lclavicle -1.4884e-014 7.15625e-015
lhumerus -21.6068 -3.66473 83.3007
lradius 28.2789
lwrist 9.15752
lhand -33.4947 23.1027
lfingers 7.12502
lthumb -6.69182 52.9769
rfemur -27.0282 3.01761 18.3599
rtibia 17.6226
rfoot -9.2241 -10.4411
rtoes -4.23067
lfemur 14.2367 -2.97797 -25.8415
ltibia 17.8066
lfoot -14.9582 -9.05775
ltoes -3.26507
